<svg xmlns="http://www.w3.org/2000/svg" xmlns:xlink="http://www.w3.org/1999/xlink" width="200" zoomAndPan="magnify" viewBox="0 0 150 74.999997" height="100" preserveAspectRatio="xMidYMid meet" version="1.2"><g id="e72be83e23"><path style=" stroke:none;fill-rule:nonzero;fill:#264796;fill-opacity:1;" d="M 78.78125 41.277344 L 93.222656 41.277344 L 93.222656 49.335938 L 62.976562 49.335938 L 63.09375 11.011719 L 78.898438 11.011719 Z M 78.78125 41.277344 "/><path style=" stroke:none;fill-rule:nonzero;fill:#264796;fill-opacity:1;" d="M 143.09375 49.335938 L 132.65625 49.335938 L 132.65625 37.359375 L 126.121094 49.335938 C 122.5625 49.335938 119.007812 49.335938 115.449219 49.335938 L 94.53125 11.011719 L 110.332031 11.011719 L 122.367188 33.0625 L 134.402344 11.011719 L 143.09375 11.011719 C 143.09375 23.789062 143.09375 36.5625 143.09375 49.335938 Z M 112.164062 49.335938 L 98.253906 49.335938 L 98.253906 23.796875 Z M 112.164062 49.335938 "/><path style=" stroke:none;fill-rule:nonzero;fill:#3fab3c;fill-opacity:1;" d="M 36.996094 43.949219 L 19.902344 43.949219 L 16.972656 49.335938 L 6.410156 49.335938 L 23.113281 18.519531 C 27.742188 26.996094 32.367188 35.472656 36.996094 43.949219 Z M 36.996094 43.949219 "/><path style=" stroke:none;fill-rule:evenodd;fill:#3fab3c;fill-opacity:1;" d="M 38.148438 11.011719 L 22.347656 11.011719 L 43.265625 49.335938 L 59.066406 49.335938 Z M 38.148438 11.011719 "/><path style=" stroke:none;fill-rule:nonzero;fill:#264796;fill-opacity:1;" d="M 132.664062 65.035156 L 140.527344 65.035156 C 142.367188 65.035156 143.09375 64.535156 143.09375 62.402344 L 143.09375 60.199219 C 143.09375 58.046875 142.59375 57.320312 140.664062 57.320312 L 129.851562 57.320312 L 129.851562 58.976562 L 130.734375 58.976562 L 130.734375 67.414062 L 129.851562 67.414062 L 129.851562 69.074219 L 133.730469 69.074219 L 133.730469 67.414062 L 132.664062 67.414062 Z M 132.664062 63.398438 L 132.664062 58.976562 L 140.320312 58.976562 C 140.933594 58.976562 141.164062 59.339844 141.164062 60.066406 L 141.164062 62.25 C 141.164062 62.855469 141.160156 63.398438 140.140625 63.398438 Z M 132.664062 63.398438 "/><path style=" stroke:none;fill-rule:nonzero;fill:#264796;fill-opacity:1;" d="M 113.867188 59.078125 L 113.867188 57.417969 L 110.148438 57.417969 L 110.148438 59.078125 L 111.054688 59.078125 L 111.054688 66.472656 C 111.054688 66.96875 110.960938 67.511719 110.234375 67.511719 L 101.796875 67.511719 C 100.867188 67.511719 100.839844 67.019531 100.839844 66.472656 L 100.839844 59.078125 L 101.722656 59.078125 L 101.722656 57.417969 L 98.027344 57.417969 L 98.027344 59.078125 L 98.910156 59.078125 L 98.910156 66.882812 C 98.910156 68.441406 99.546875 69.171875 100.863281 69.171875 L 111.007812 69.171875 C 112.324219 69.171875 112.960938 68.355469 112.960938 66.996094 L 112.960938 59.078125 Z M 113.867188 59.078125 "/><path style=" stroke:none;fill-rule:nonzero;fill:#264796;fill-opacity:1;" d="M 80.113281 66.46875 C 80.113281 67.1875 79.929688 67.621094 79.089844 67.621094 L 70.539062 67.621094 C 69.703125 67.621094 69.542969 67.035156 69.542969 66.285156 L 69.542969 60.246094 C 69.542969 59.566406 69.859375 59.160156 70.539062 59.160156 L 79.273438 59.160156 C 79.863281 59.160156 80.113281 59.546875 80.113281 60.246094 Z M 82.042969 66.648438 L 82.042969 60.40625 C 82.042969 58.640625 81.609375 57.527344 79.613281 57.527344 L 70.175781 57.527344 C 68.40625 57.527344 67.609375 58.527344 67.609375 60.40625 L 67.609375 66.332031 C 67.609375 68.367188 68.179688 69.28125 70.0625 69.28125 L 79.476562 69.28125 C 81.496094 69.28125 82.042969 68.234375 82.042969 66.648438 Z M 82.042969 66.648438 "/><path style=" stroke:none;fill-rule:nonzero;fill:#264796;fill-opacity:1;" d="M 39.390625 64.933594 L 47.765625 64.933594 C 48.5625 64.933594 48.652344 65.34375 48.652344 65.953125 L 48.652344 67.402344 L 47.816406 67.402344 L 47.816406 69.0625 L 51.625 69.0625 L 51.625 67.402344 L 50.582031 67.402344 L 50.582031 65.660156 C 50.582031 64.226562 49.585938 64.183594 49.242188 64.09375 L 49.242188 64.023438 C 49.585938 63.910156 50.402344 63.683594 50.402344 62.460938 L 50.402344 59.28125 C 50.402344 58.285156 49.945312 57.308594 48.289062 57.308594 L 36.578125 57.308594 L 36.578125 58.964844 L 37.484375 58.964844 L 37.484375 67.402344 L 36.578125 67.402344 L 36.578125 69.0625 L 40.273438 69.0625 L 40.273438 67.402344 L 39.390625 67.402344 Z M 39.390625 63.410156 L 39.390625 58.964844 L 47.722656 58.964844 C 48.335938 58.964844 48.472656 59.441406 48.472656 60.03125 L 48.472656 62.390625 C 48.472656 62.9375 48.332031 63.410156 47.628906 63.410156 Z M 39.390625 63.410156 "/><path style=" stroke:none;fill-rule:nonzero;fill:#264796;fill-opacity:1;" d="M 20.59375 64.882812 L 17.128906 64.882812 L 17.128906 66.542969 L 18.660156 66.542969 L 18.660156 67.453125 L 9.207031 67.453125 C 8.6875 67.453125 8.34375 66.957031 8.34375 66.410156 L 8.34375 60.058594 C 8.34375 59.511719 8.59375 59.015625 9.136719 59.015625 L 18.867188 59.015625 L 18.867188 60.453125 L 20.59375 60.453125 L 20.59375 57.359375 L 8.773438 57.359375 C 6.890625 57.359375 6.410156 58.542969 6.410156 59.875 L 6.410156 66.410156 C 6.410156 68.496094 7.09375 69.113281 9.136719 69.113281 L 20.59375 69.113281 Z M 20.59375 64.882812 "/></g></svg>